<svg width="18.000000" height="14.000000" viewBox="0 0 18 14" fill="none" xmlns="http://www.w3.org/2000/svg" xmlns:xlink="http://www.w3.org/1999/xlink">
	<desc>
			Created with Pixso.
	</desc>
	<defs/>
	<path id="Vector" d="M18 0C17.29 0.4 15.88 0.95 15.06 1.11C15.03 1.12 15.01 1.13 14.99 1.13C14.26 0.43 13.25 0 12.15 0C9.91 0 8.09 1.76 8.09 3.93C8.09 4.05 8.09 4.26 8.09 4.37C5.08 4.37 2.78 2.83 1.13 0.87C0.95 1.31 0.88 2 0.88 2.65C0.88 3.87 1.86 5.08 3.4 5.82C3.11 5.89 2.8 5.95 2.48 5.95C1.96 5.95 1.4 5.81 0.9 5.41C0.9 5.42 0.9 5.43 0.9 5.45C0.9 7.16 2.77 8.33 4.43 8.65C4.09 8.85 3.41 8.87 3.08 8.87C2.84 8.87 2.02 8.76 1.79 8.72C2.26 10.13 3.93 10.92 5.52 10.94C4.27 11.89 3.41 12.24 0.86 12.24L0 12.24C1.6 13.25 3.65 14 5.71 14C12.39 14 16.2 9.04 16.2 4.37C16.2 4.29 16.19 4.14 16.19 3.98C16.19 3.96 16.2 3.95 16.2 3.93C16.2 3.91 16.19 3.89 16.19 3.86C16.19 3.74 16.18 3.63 16.18 3.57C16.89 3.08 17.51 2.45 18 1.74C17.34 2.03 16.64 2.22 15.91 2.3C16.66 1.86 17.72 0.82 18 0Z" fill="#000000" fill-opacity="1.000000" fill-rule="nonzero"/>
</svg>
