<svg width="20.000000" height="16.000000" viewBox="0 0 20 16" fill="none" xmlns="http://www.w3.org/2000/svg" xmlns:xlink="http://www.w3.org/1999/xlink">
	<desc>
			Created with Pixso.
	</desc>
	<defs/>
	<path id="Vector" d="M16.16 0.51C12.06 -0.18 7.89 -0.18 3.79 0.51C1.46 1 0 2.51 0 4.47L0 11.48C0 13.48 1.46 14.97 3.84 15.48C5.87 15.82 7.93 15.99 10 16C12.07 15.99 14.13 15.82 16.18 15.49C18.5 15.04 20 13.49 20 11.49L20 4.48C20 2.5 18.5 0.93 16.16 0.51ZM13.26 8.44L8.26 11.45C8.18 11.49 8.09 11.52 8 11.52C7.91 11.51 7.82 11.49 7.75 11.46C7.67 11.41 7.6 11.34 7.56 11.26C7.51 11.18 7.49 11.09 7.5 11L7.5 5C7.5 4.91 7.52 4.82 7.56 4.74C7.61 4.67 7.67 4.6 7.75 4.55C7.82 4.51 7.91 4.49 8 4.49C8.09 4.49 8.18 4.51 8.26 4.55L13.26 7.55C13.33 7.6 13.39 7.66 13.43 7.74C13.47 7.81 13.49 7.9 13.49 7.98C13.49 8.07 13.47 8.16 13.43 8.23C13.39 8.31 13.33 8.37 13.26 8.41L13.26 8.44Z" fill="#000000" fill-opacity="1.000000" fill-rule="nonzero"/>
</svg>
